<?xml version="1.0" encoding="utf-8"?>
<!-- Generator: Adobe Illustrator 24.0.2, SVG Export Plug-In . SVG Version: 6.00 Build 0)  -->
<svg version="1.1" id="Capa_1" xmlns="http://www.w3.org/2000/svg" xmlns:xlink="http://www.w3.org/1999/xlink" x="0px" y="0px"
	 viewBox="0 0 63.7 64" style="enable-background:new 0 0 63.7 64;" xml:space="preserve">
<style type="text/css">
	.st0{fill:#383968;}
</style>
<path class="st0" d="M60.2,47.8c-2.9-3.2-5.9-6.3-9.2-9.2c-2.3-2-5.7-2.9-7.7-0.6c-4.2,4.7-7,1.8-10.2-0.9c-2.6-2.2-4.7-4.6-6.7-7.4
	c-1.4-2-2.3-3.6,0.1-5.9c3.3-3.2,2.8-6.9-0.3-10.2c-2.4-2.6-4.9-5-7.4-7.4C14.9,2.6,11.1,2.9,7.7,7c-5.8,7-6.4,17.3-1.4,25.2
	c7.1,11.1,16.3,20.1,27.3,27.3c3.4,2.3,7.2,3.3,13.3,3.2c3.7-0.1,8.8-1.9,12.8-6C62.5,53.9,62.8,50.7,60.2,47.8z M54,52.7
	c-1.4,2.9-5.5,3.4-8.9,3.5c-2.9,0-5.6-0.6-8-2.3c-10.1-6.7-18.6-15-25.2-25.2c-3.4-5.2-3.3-10.6-0.2-16c1.1-1.9,2.2-2.2,3.8-0.4
	c1.2,1.4,2.5,2.7,3.9,3.9c2.2,1.8,2.9,3.4,0.2,5.4c-2.9,2.2-2.7,5-1,8c4.3,7.6,10.2,13.4,17.8,17.7c2.8,1.6,5.5,1.6,7.6-1.2
	c2.2-2.9,4-2,5.7,0.3C51,48.6,55.4,49.9,54,52.7z"/>
</svg>
