<?xml version="1.0" encoding="utf-8"?>
<!-- Generator: Adobe Illustrator 24.0.2, SVG Export Plug-In . SVG Version: 6.00 Build 0)  -->
<svg version="1.1" id="Capa_1" xmlns="http://www.w3.org/2000/svg" xmlns:xlink="http://www.w3.org/1999/xlink" x="0px" y="0px"
	 viewBox="0 0 164.1 162.1" style="enable-background:new 0 0 164.1 162.1;" xml:space="preserve">
<style type="text/css">
	.st0{fill:#DFE4DE;}
	.st1{fill:#3B3B6A;}
	.st2{fill:#40416D;}
</style>
<g>
	<g>
		<path class="st0" d="M160.9,81.2c1.4,42.2-36.2,79.2-79.2,78.8c-42-0.4-79.5-35.5-78.6-80.4C4.1,36.8,37.9,1.6,83.8,2
			C126.5,2.4,162,38.3,160.9,81.2z"/>
		<path class="st1" d="M98.2,106.2c1.6-5,2.1-10.5,5.6-14.7c6.8-0.9,13.6-0.1,20.4-0.4c1.4-0.1,2.9,0.5,4.2-0.5
			c0.2-0.3,0.4-0.5,0.6-0.8c1-0.5,0.6-1.3,0.6-2.1c0-12.9,0-25.7,0-38.6c0-0.7,0.3-1.6-0.6-2.1c-0.2-0.3-0.4-0.5-0.6-0.8
			c-6.5-1.1-13.1-0.2-19.6-0.5c-1.1,0-2.1,0.1-3.2-0.1c-1.2-0.1-1.6-0.7-1-1.9c7.5-0.7,15-0.1,22.5-0.3c1.7,0,2.5,1.2,3.6,2.1
			c0.6,0.8,0.4,1.8,0.4,2.7c0,25.8,0,51.7,0,77.5c0,0.8,0.1,1.6-0.3,2.3c-0.8,2-2.5,2.1-4.3,2.1c-29.1,0-58.1,0-87.2,0
			c-4.1,0-5.2-1.3-5.2-6.1c0-16.2,0-32.5,0-48.7c0-8.7,0-17.4,0-26.2c0-4.7,0.9-5.6,5.6-5.6c6.5,0,12.9,0,19.4,0
			c0.9,0,2.4-0.6,2.5,1c0.1,1.9-1.6,1.4-2.6,1.4c-6.3,0.1-12.7,0-19,0c-1.8,0-3.4,0.1-3.4,2.6c0.1,13.5,0.1,26.9,0.1,40.4
			c0,0.5,0.3,1,0.4,1.5c5.7,0.9,11.5,0.2,17.3,0.4c2.5,0.1,5-0.4,7.4,0.3c2.7,3.6,3,8.2,4.7,12.2c0.5,1.1,1,2.1,1.5,3
			c9.7,0.6,19.5,0.2,29.2,0.3C97.9,106.9,98,106.5,98.2,106.2z"/>
		<path class="st1" d="M81.7,79.1c0-15.3,0-29.9,0-44.4c0-0.9-0.1-1.9,0-2.8c0.1-1-0.7-2.8,1.1-2.9c1.9-0.1,1.2,1.6,1.3,2.7
			c0.1,1.4,0,2.9,0,4.4c0,14,0,28,0,42c1.4,0.7,2-0.4,2.8-1c4.9-3.6,9.7-7.3,14.6-10.9c0.7-0.5,1.4-1.5,2.4-0.4c1,1,0.2,1.6-0.6,2.2
			c-6.3,4.7-12.7,9.5-19,14.3c-1.3,1-2.1,0.4-3.1-0.4c-6-4.5-12-9-18-13.5c-0.7-0.6-2.1-1.1-1.2-2.5c1-1.3,1.9-0.1,2.6,0.5
			C70,70.4,75.5,74.5,81.7,79.1z"/>
		<path class="st2" d="M130.9,128.2c0-27.5-0.1-55-0.1-82.5c1.2,1,0.8,2.4,0.8,3.7c0,25,0,50,0,75.1
			C131.6,125.7,131.9,127.1,130.9,128.2z"/>
		<path class="st2" d="M128.9,47.2c1.3,0.6,1,1.7,1,2.7c0,12.4,0,24.8,0,37.2c0,1,0.2,2.2-1,2.7C128.9,75.6,128.9,61.4,128.9,47.2z"
			/>
		<path class="st2" d="M98.2,106.2c-0.4,1.1-1.3,1.1-2.2,1.1c-8.7,0-17.3,0-26,0c-0.6,0-1.2-0.4-1.8-0.6c8.6,0,17.1,0,25.7-0.1
			C95.3,106.6,96.7,106.4,98.2,106.2z"/>
		<path class="st2" d="M104.6,44c0.4,2.2,2.2,1.5,3.5,1.5c5.5,0.1,11.1,0,16.6,0c1.3,0,2.7-0.5,3.6,0.9c-7.2-0.1-14.4-0.1-21.7-0.3
			C105.5,46.1,103.1,46.8,104.6,44z"/>
		<path class="st2" d="M61.9,91.4c-7.2,0-14.3,0.1-21.5,0.1c-1.1,0-2.4,0.3-3.2-0.8c6.8,0.1,13.7,0.1,20.5,0.2
			C59.1,90.9,60.6,90.4,61.9,91.4z"/>
		<path class="st2" d="M128.4,90.6c-0.9,1.4-2.4,0.9-3.6,0.9c-7,0-14,0-21,0c4.4-1.3,8.8-0.4,13.2-0.6
			C120.8,90.7,124.6,90.7,128.4,90.6z"/>
		<path class="st0" d="M128.9,127.1c-1.4,1-3,0.7-4.6,0.7c-27.6,0-55.2-0.1-82.8,0.1c-3.8,0-5.1-1-5-4.8c0.3-8.7,0.2-17.4,0-26.1
			c0-2.6,0.5-3.8,3.4-3.7c5.9,0.2,11.9,0.2,17.8,0c2.2,0,3.2,0.8,3.9,2.9c1.4,4.1,2.1,8.4,4.5,12.1c10.5,0.7,21.1,0.1,31.7,0.3
			c0.9,0,1.5-0.4,1.9-1.2c0.2-0.6,0.4-1.2,0.6-1.8c1.3-3.9,1.6-9.3,4.3-11.4c3.3-2.6,8.9-0.6,13.4-0.8c3.5-0.1,7.1-0.1,10.6-0.2
			c0.8,0.3,0.7,0.9,0.7,1.6c0,10.2,0,20.4,0,30.6C129.6,126,129.6,126.7,128.9,127.1z"/>
		<path class="st2" d="M128.9,127.1c0.2-11.3,0.4-22.6-0.1-33.9c1.1,0.4,1.2,1.3,1.2,2.2c0,9.9,0,19.9,0,29.8
			C130,126,129.8,126.7,128.9,127.1z"/>
		<path class="st2" d="M99.8,107.4c-0.1,1.4-1,1.8-2.2,1.8c-10,0-20.1-0.1-30.1-0.1c-0.4,0-0.9-0.5-1.3-0.8c9.5,0,19.1-0.1,28.6-0.1
			C96.6,108.1,98.3,108.3,99.8,107.4z"/>
	</g>
</g>
</svg>
