<?xml version="1.0" encoding="utf-8"?>
<!-- Generator: Adobe Illustrator 24.0.2, SVG Export Plug-In . SVG Version: 6.00 Build 0)  -->
<svg version="1.1" id="Capa_1" xmlns="http://www.w3.org/2000/svg" xmlns:xlink="http://www.w3.org/1999/xlink" x="0px" y="0px"
	 viewBox="0 0 63.7 64" style="enable-background:new 0 0 63.7 64;" xml:space="preserve">
<style type="text/css">
	.st0{fill:#383968;}
</style>
<path class="st0" d="M40.6,8.3c-0.4-0.3-0.8-0.6-1.2-0.9c-5.7-4-10-4.1-15.5,0.1c-4.4,3.3-8.4,7.1-12.6,10.6c-2.6,2.2-4,5-4,8.3
	c-0.2,8-0.3,16,0.1,24c0.3,6.1,3.5,9,9.6,9.2c5,0.2,10,0,15,0c0,0,0,0,0,0c4.7,0,9.3,0,14,0c0.3,0,0.7,0,1,0c5.5-0.5,8.6-3.3,9-8.8
	c0.3-3.8-0.4-7.7,0.3-11.5C58.7,24.9,51.9,15.5,40.6,8.3z M35.8,46.9c0.1,3.6,0.8,6.3-4.1,6.3c-5.7,0.1-4.2-3.5-4.4-6.5
	c-0.3-3.4,0.1-5.3,4.5-5.3C37.3,41.3,35.6,44.8,35.8,46.9z M49.7,38c-0.5,3.6-0.2,7.3-0.2,11c0,3-1.6,4-4.4,4
	c-3.5,0-2.2-2.5-2.5-4.2c0-0.2,0-0.3,0-0.5C43.5,32.9,38.1,34.8,27,35c-3.8,0.1-6,2.6-6.2,6.5c-0.1,2.7-0.1,5.3,0,8
	c0,1.9,0.1,3.7-2.7,3.5c-2.4-0.2-4.3-0.6-4.3-3.6c0-3.8,0-7.7,0-13c-3-9,2.7-15.3,10.5-21c7.3-5.4,7.3-5.3,14.9,0
	C47.3,21.1,51.2,28,49.7,38z"/>
</svg>
