<?xml version="1.0" encoding="utf-8"?>
<!-- Generator: Adobe Illustrator 24.0.2, SVG Export Plug-In . SVG Version: 6.00 Build 0)  -->
<svg version="1.1" id="Capa_1" xmlns="http://www.w3.org/2000/svg" xmlns:xlink="http://www.w3.org/1999/xlink" x="0px" y="0px"
	 viewBox="0 0 104.8 104.7" style="enable-background:new 0 0 104.8 104.7;" xml:space="preserve">
<style type="text/css">
	.st0{fill:#373868;}
	.st1{fill:#393A69;}
	.st2{fill:#F3F3F6;}
</style>
<g>
	<path class="st0" d="M104.7,17.1c-0.1-10.2-6.8-16.9-17-16.9c-23.7-0.1-47.3-0.1-71,0C6.8,0.2,0.1,7.1,0.1,17
		C0,40.6,0,64.3,0.1,87.9c0,10.2,6.7,16.9,17,17c23.5,0.1,47,0.1,70.5,0c10.6-0.1,17.1-6.8,17.2-17.3c0.1-11.7,0-23.3,0-35
		C104.7,40.7,104.8,28.9,104.7,17.1z M72.1,69.9c-3.2,3.5-7,6-11.5,7.7c-3.3,1.3-5.1,0.8-4.7-3.2c0.2-1.6,0-3.3,0-5
		c0-1.5,0.1-3,0-4.5c-0.2-2.9-0.1-5.3,4-5c3.2,0.2,2.6-2.9,3-4.8c0.6-2.6-1.3-2.6-3-2.6c-2.3,0.1-3.9-0.4-3.7-3.3
		c0.1-2.7,0.3-5.3,3.7-5.5c2.9-0.1,4.2-1,4-4.1c-0.2-3.3-2.5-3-4.6-3.1c-7.1-0.4-10.8,3-11,10.3c-0.1,3.1,0.4,6.1-4.4,5.7
		c-2.8-0.2-2,2.5-2.1,4.1c-0.1,1.8,0.3,3.5,2.6,3.2c3.7-0.4,4,1.7,3.9,4.6c-0.1,3-0.3,6,0,9c0.4,4.7-1.5,4.9-5.3,3.5
		C32.5,73,25.6,62.3,26.2,50.6c0.6-11.3,9-21.2,20.1-23.8c10.9-2.6,22.6,2.3,28.4,11.9C80.8,48.6,79.6,61.6,72.1,69.9z"/>
</g>
</svg>
