<?xml version="1.0" encoding="utf-8"?>
<!-- Generator: Adobe Illustrator 24.0.2, SVG Export Plug-In . SVG Version: 6.00 Build 0)  -->
<svg version="1.1" id="Capa_1" xmlns="http://www.w3.org/2000/svg" xmlns:xlink="http://www.w3.org/1999/xlink" x="0px" y="0px"
	 viewBox="0 0 441 148.9" style="enable-background:new 0 0 441 148.9;" xml:space="preserve">
<style type="text/css">
	.st0{fill:#366570;}
	.st1{fill:#46A17C;}
	.st2{fill:#45A27C;}
	.st3{fill:#49A27B;}
	.st4{fill:#45A17C;}
	.st5{fill:#49A17B;}
	.st6{fill:#A9CC9B;}
	.st7{fill:#366470;}
	.st8{fill:#A8CA9A;}
	.st9{fill:#A8CB9A;}
	.st10{fill:#A7C99A;}
	.st11{fill:#A7CA9A;}
	.st12{fill:#449B7B;}
	.st13{fill:#A7C999;}
	.st14{fill:#A0C197;}
	.st15{fill:#A0C297;}
	.st16{fill:#9BBB95;}
	.st17{fill:#9DBD96;}
	.st18{fill:#489C7B;}
	.st19{fill:#459B7B;}
</style>
<path class="st0" d="M399,124.1c-0.1-4.5-1.8-8.4-5.2-11.5c-1.7-1.6-3.4-3.2-5-4.8c-1.1-1-1.3-3.6-3.6-2.5c-1.8,0.9-1.2,2.9-1.2,4.5
	c-0.3,7-0.6,13.9-1,20.9c-0.2,3.7-4.4,7.2-7.9,6.1c-3.6-1-1.6-4-1.4-6.3c0.5-5.8,2-11.5,1.2-17.4c-0.4-2.8-1.1-6.2-4.6-6.2
	c-3.3,0-4.4,3.2-5,6c-0.3,1.3-0.3,2.7-0.2,4c0.5,4.8,1.1,9.6,1.6,14.3c0.2,1.9,1.3,4.4-1,5.4c-2.2,0.9-4.6-0.2-6.5-1.5
	c-1.5-1.1-1.4-3-1.6-4.6c-1.1-6.9-0.3-13.9-0.7-20.9c-0.1-1.6,0.3-3.6-1.5-4.5c-2.3-1.1-2.5,1.5-3.6,2.5c-1.2,1.1-2.4,2.3-3.7,3.3
	c-4.8,4-7.2,9-7,15.3c0.1,3.7-0.1,7.3,0,11c0.1,2.9-1.3,7.5,0.8,8.4c2.7,1.1,4.7-3.2,7.2-5c1.7-1.2,3.2-4.5,5.1-3.3
	c5.3,3.4,15,0.6,15.5,11.6c2.1-3.2,1.2-6.7,4.9-8.1c11.6-4.3,11.5-4.4,21.1,3.7c0.7,0.6,1.4,1.8,2.4,1.4c1.4-0.5,1-2,1-3
	C399.1,136.7,399.1,130.4,399,124.1z"/>
<path class="st1" d="M382.7,44.6c-7.4-5.9-18-5.9-25.4,0.2c-7.6,6.2-9.7,16.8-4.8,25.7c1.3,2.3,1.8,4.5,1.6,7.1
	c-0.4,5.8-0.6,11.6-0.9,17.4c-0.1,1.3-0.1,3,1.7,3.1c2,0,1.4-1.9,1.5-3c0.3-3,0.7-6,0.5-9c-0.3-4.5,2.1-6.2,6.5-7.3
	c0,6.1-0.1,11.9,0,17.6c0,1.7-0.8,4.3,1.8,4.4c2.9,0.1,1.8-2.6,1.8-4.2c0.1-10.1,0.1-20.3,0.1-30.4c0-6.5,0-13,0-19.5
	c0-1.7,0.3-3,2.4-3.1c1.3,0,2.9-0.3,3.2,1.5c0.3,1.3,0.2,2.6,0.2,4c0,16,0,31.9,0.1,47.9c0,1.4-1.1,3.9,1.6,3.8
	c2.4-0.1,1.8-2.4,1.9-3.9c0.1-4.7,0-9.3,0.1-14c0-1.4-0.7-3.5,1-3.9c1.1-0.3,2.6,1.1,3.9,1.7c1.7,0.8,1.4,2.4,1.5,3.9
	c0.2,3.2,0.2,6.3,0.5,9.5c0.1,1.4-0.9,4,1.7,3.8c2.2-0.2,1.5-2.6,1.5-4.2c-0.1-4.2-0.5-8.3-0.7-12.5c-0.2-3.9-0.5-7.7,1.6-11.6
	C392.6,61.2,390.2,50.6,382.7,44.6z M360.3,74.2c-9.1-5.8-9.1-21.8,0.1-27.4c2-1.2,3.1-0.9,3.1,1.6c0,4,0,8,0,12s0,8,0,12
	C363.4,74.7,362.9,75.9,360.3,74.2z M379.7,74.3c-2.1,1.5-3,0.7-3-1.6c0-4.1,0-8.3,0-12.4c0-4,0-8,0-11.9c0-2.5,1.1-2.9,3-1.6
	c4.7,3.3,7.1,7.9,7.1,13.5C386.9,66.1,384.4,70.9,379.7,74.3z"/>
<path class="st2" d="M103.4,109.5c-1.1-1.7-1.3-2.8,0.5-4.5c3.6-3.4,1.8-9.3-3.1-10.5c-1.8-0.4-3.6-0.3-5.3-0.5c0,0.1,0,0.1,0,0.1
	c-1.2,0-2.5,0-3.7,0c-1.3,0-2.1,0.5-2,2c0,5.9,0.1,11.7,0,17.5c0,1.8,1.1,1.9,2.4,1.9s2.2-0.4,2.1-1.9c-0.1-1.1-0.1-2.2,0-3.4
	c0.1-1-0.4-2.4,1.3-2.6c1.4-0.1,2.4,0.3,3,1.6c0.8,1.8,1.7,3.4,2.6,5.1c1,1.8,2.9,1.6,4.2,0.9c1.5-0.7-0.1-1.9-0.4-2.8
	C104.6,111.4,104,110.5,103.4,109.5z M96.9,104.3c-2.7,0.2-3-1.2-2.7-3.2c-0.2-2.2-0.2-3.8,2.6-3.6c2.4,0.1,4.4,0.5,4.3,3.4
	C101.1,103.7,99.1,104.1,96.9,104.3z"/>
<path class="st2" d="M190,104.6c-0.3-4.7-3.9-6.5-8.2-4.5c-0.6,0.3-1.5,1.1-1.7,0.9c-2.7-2.2-5.5-1.6-8.6-0.7c-1,0.3-3.2-1.3-4-0.1
	c-0.7,1.1-0.3,3-0.4,4.6c-0.1,0.9,0,1.8,0,2.7c0,1.6-0.1,3.2,0,4.7c0.1,1.4-0.7,3.3,2,3.4c2.6,0.1,2.1-1.7,2.2-3.2
	c0.1-2.2,0.1-4.5,0-6.7c0-1.8,0.9-2.8,2.6-2.9c1.9-0.1,2.6,1.1,2.6,2.8c0,2.2-0.1,4.5,0,6.7c0.1,1.5-0.5,3.2,2,3.3
	c2.6,0.1,2.2-1.7,2.2-3.2c0-2.2,0.1-4.5,0-6.7c-0.1-1.8,0.9-2.8,2.6-2.9c2-0.1,2.5,1.1,2.5,2.8c0.1,2.7,0.1,5.4,0.1,8.1
	c0,1.5,0.8,1.9,2.2,1.9c1.3,0,2.2-0.3,2.2-1.8C190,110.7,190.2,107.6,190,104.6z"/>
<path class="st3" d="M138.3,44.3c-2.9,0.9-5.4-0.1-8.1-0.4c-2.4-0.3-4.6,0.3-6.5,1.8c-4.1,3.4-5.2,12.1-2.3,17.6
	c2.4,4.5,6.4,5.7,13.3,3.8c-1.3,5.5-3,6.3-8.7,4.2c-1.6-0.6-2.7-1-3.7,0.7c-0.7,1.3-0.4,2.2,0.7,3c3.9,2.6,8.1,2.9,12.4,1.2
	c3.8-1.5,5.9-4.4,6-8.4c0.2-6.8,0-13.6,0.1-20.4C141.4,45,140.6,43.6,138.3,44.3z M131.1,63.1c-4.6,0-4.9-3.7-5-7.1
	c0-3.4,0.4-7.2,4.9-7.2c5.1,0,3.9,4.2,4.1,7.4C134.9,59.1,136,63.1,131.1,63.1z"/>
<path class="st4" d="M138.8,104.3c0-3-0.1-6.1,0-9c0-1.4-0.3-2.3-2-2.3c-1.8,0-2.4,0.7-2.3,2.4c0.1,0.5-0.1,1.1,0,1.7
	c0.2,2.2,0,3.4-3,2.6c-3.9-1-6.7,2-7.1,6.8c-0.4,5.7,2,9.4,6.1,9.4c0.5,0,0.9,0.1,1.3-0.1c1.4-0.7,2.6-0.9,4.2-0.3
	c1.5,0.6,2.8,0.1,2.7-2.1C138.7,110.3,138.8,107.3,138.8,104.3z M134.1,111.2c-0.7,1.3-2,1.6-3.2,1.1c-2.2-0.8-2.2-2.8-2.2-4.7
	s-0.1-3.9,2.2-4.7c1.3-0.4,2.4-0.1,3.2,1.1c0.7,1.1,0.3,2.4,0.4,3.5C134.4,108.8,134.8,110.1,134.1,111.2z"/>
<path class="st3" d="M116.8,45.6c0.2-0.1,0.1-0.6,0.1-0.9c-6.8-2.9-8.8,3.8-13.5,7.3c0-5.4-0.1-9.9,0-14.5c0-2.2-0.5-3.4-3-3.3
	c-2.4,0-3.2,0.9-3.2,3.2c0.1,9,0.1,17.9,0,26.9c0,2.1,0.4,3.4,3,3.5c2.8,0.1,3.4-1.3,3.2-3.7c-0.1-1.8-0.6-4.1,1.6-4.7
	c2.4-0.7,2.8,2,3.6,3.4c2.1,3.8,4.5,6.5,9.6,4.2c-0.5-0.9-0.8-1.9-1.4-2.6C111.3,58.1,108.5,51.9,116.8,45.6z"/>
<path class="st5" d="M68.9,59L68.9,59c0-1.7,0-3.3,0-5c-0.2-8.2-5.2-12-13.1-9.9c-2.9,0.8-5.2,2.2-6.2,5.2c-0.2,0.6-0.1,1.4,0.7,1.6
	c2.5,0.6,4.8,0.3,6.6-2c1-1.3,2.8-0.9,4.1,0c1,0.7,1.5,1.8,1.2,3c-0.5,1.8-2.1,1.1-3.3,1.3c-1,0.2-2,0.2-3,0.4c-5.5,1.2-8.1,4.5-7,9
	c1.1,4.4,5.7,6.5,10.8,4.9c1.1-0.3,1.9-1,3.2-0.8c6.1,1.2,6.1,1.1,5.9-4.8C68.9,61,68.9,60,68.9,59z M62.4,59.9
	c-0.2,2.6-1.9,3.3-3.7,3.5c-2.3-0.1-3.6-1-3.4-3.1c0.3-2.9,2.5-3.1,4.8-3.3C62.1,56.9,62.5,58.2,62.4,59.9z"/>
<path class="st5" d="M161.5,44.8c-3.9-1.9-7.8-1.6-11.4,0.8c-4,2.7-5.8,9.1-4.2,14.4c1.6,5.1,5.6,8.1,11.7,8.1
	c1.6,0.2,3.6-0.2,5.3-1.3c1.4-0.9,3.9-1.4,2.6-3.9c-1.1-2.2-2.7-1.5-4.5-0.5c-2.3,1.3-4.8,1.2-7-0.6c-0.9-0.7-1.8-1.7-1.3-3
	c0.5-1.2,1.7-0.9,2.6-0.9c2.8-0.1,5.7-0.1,8.5,0c2.3,0.1,3.4-0.8,3.3-3.2C166.7,50.6,165.5,46.8,161.5,44.8z M156.4,53.7
	c-1.4-0.5-3.8,0.8-3.7-1.9c0.1-2.3,2.1-3.2,4.2-3.2c1.8,0,3.3,1,3.4,2.9C160.5,54.6,157.8,53.2,156.4,53.7z"/>
<path class="st4" d="M121.8,109.3L121.8,109.3c0-1.3,0-2.7,0-4c0-2.7-1-4.9-3.8-5.6c-3.1-0.7-6.1-0.6-8.4,2
	c-0.5,0.5-1.1,1.3-0.7,2.1c0.4,0.9,1.3,0.4,2.1,0.5c1.2,0.2,1.8-0.7,2.5-1.3c0.9-0.8,2-0.9,3.1-0.1c0.6,0.4,0.8,1.1,0.7,1.8
	c-0.2,1.6-1.5,1-2.4,1.2c-0.7,0.1-1.3,0.1-2,0.3c-3.6,0.7-5.3,3.2-4.5,6.2c0.7,2.6,3.8,4.1,6.8,3.3c0.7-0.2,1.5-0.8,2.2-0.7
	c4.5,0.1,4.5,0.2,4.4-4.2C121.8,110.3,121.8,109.8,121.8,109.3z M117.4,109.6c-0.1,2.3-1.1,3-2.7,3c-1.3,0-2.2-0.5-2.1-2
	c0.1-1.9,1.6-2.2,3.2-2.3C117.1,108.3,117.5,109,117.4,109.6z"/>
<path class="st6" d="M206,108.7c-0.9-1.5-1-2.2,0.5-3.6c3.2-2.7,3-7.5-0.1-9.6c-3.6-2.4-7.8-2-11.4-0.9c-2.1,0.5-0.5,4.2-0.9,6.4
	c-0.1,1.2,0,2.5,0,3.7c0,2.9,0,5.8,0,8.8c0,0.1,0,0.2,0,0.3c0,1,0.1,1.8,1.4,1.8c1.3,0,1.4-0.8,1.4-1.8c0-1.1-0.1-2.2,0.1-3.4
	c0.1-1.2-0.8-3,1.2-3.3c2-0.3,4-0.6,5.1,2c0.8,2,2,3.8,3,5.7c0.6,1.1,1.8,1.2,2.6,0.7c1-0.6,0-1.3-0.3-2
	C207.9,111.8,207,110.1,206,108.7z M200.2,104.5c-3.6,0.3-3.4-1.8-3.2-4.2c-0.4-2.4-0.2-4.3,3.2-4c3.9,0.3,5.7,1.3,5.7,4.1
	C205.9,103.3,204.1,104.3,200.2,104.5z"/>
<path class="st5" d="M182.8,43.8c-3.2,0.4-6.1,2-9.6,0.4c-1.8-0.8-3,0.5-2.9,2.7c0.1,3,0,6,0,9c0,2.8,0.1,5.6,0,8.5
	c-0.1,2.2,0.6,3.4,3.1,3.4c2.3,0,3.4-0.8,3.3-3.2c-0.1-3.8,0-7.6,0-11.4c0-2.9,1.4-4.4,4.2-4.4s3.6,1.8,3.6,4.3c-0.1,4,0.1,8,0,11.9
	c0,2.3,1.3,2.7,3.2,2.7s3.3-0.4,3.2-2.7c-0.1-5.1,0.1-10.3-0.4-15.4C190.1,45.2,187,43.3,182.8,43.8z"/>
<path class="st7" d="M364.4,35.3c3.9-1.3,7.8-1.2,11.7,0.1c1.9,0.6,3.1,0,2.8-2c-1.7-9.6-4.6-18.9-8.9-27.8
	c-4.3,8.8-6.6,17.9-8.7,27.2C360.7,35.2,361.9,36.2,364.4,35.3z"/>
<path class="st2" d="M161.9,99.6c-1.9,0-2.3,0.9-2.2,2.4c0.1,2.5,0,4.9,0,7.4c0,2-0.9,2.9-2.8,3c-2,0.1-2.4-1.2-2.5-2.9
	c0-2.6-0.1-5.1-0.1-7.8c0-1.6-0.5-2.2-2.2-2.2c-1.7,0-2.1,0.8-2.1,2.3c0.1,2.9-0.1,5.9,0.1,8.8c0.3,4,3,6,6.9,4.9
	c0.8-0.2,1.7-0.8,2.4-0.7c4.2,0.5,4.2,0.5,4.3-3.5c0-1.2,0-2.5,0-3.7c0-1.9-0.1-3.8,0-5.7C163.9,100.6,163.6,99.7,161.9,99.6z"/>
<path class="st5" d="M28.9,36c-3.3,0-6.6,0-10,0l0,0c-3.5,0-7,0-10.5,0c-1.3,0-2.2,0.5-2.2,2c0,1-0.2,2.2,0.9,2.6
	C8,41,9.1,41.1,10,41c4.9-0.8,5.8,1.7,5.6,5.9c-0.3,5.8,0,11.6-0.1,17.4c0,2.6,1.1,3.4,3.6,3.4c2.4,0,3.1-1.1,3.1-3.3
	c-0.1-5.3,0-10.6,0-15.9c0-6.7,0-6.7,6.9-7.4c1.7-0.2,2.9-0.4,2.9-2.5C32.3,36.2,30.7,36,28.9,36z"/>
<path class="st5" d="M224.7,48.4c0.7-0.9,3.2-2.8,0.8-4c-1.6-0.8-4.3-1.2-5.8,1.2c-1,1.6-2,3.2-3.4,5.5c-2-4.9-3.9-8.8-10.2-6.3
	c4.6,6,8.2,11.9,2,18.7c-0.8,0.8-2.7,2.7-1,3.7s4.2,1.2,5.9-0.9c1.3-1.6,1.7-4,4-5.2c1,1.6,2,3.1,2.9,4.7c1.4,2.5,4,2.5,5.7,1.6
	c2.5-1.3,0.2-3.3-0.7-4.4C220.8,58.2,220.6,53.5,224.7,48.4z"/>
<path class="st8" d="M246.3,45.3c0-2.9,0-5.7,0-8.4c0-1.4,0-2.6-2-2.7c-1.9-0.1-2.1,1.1-2.1,2.5c0,9.4,0,18.9,0,28.3
	c0,1.4,0.6,3.5,1.9,2.5c2.9-2.1,4.9,0.3,7.3,0.6c3.4,0.4,6.2-0.4,8.3-3.3c3.2-4.3,3.5-13.1,0.4-17.5
	C257.5,43.5,253.9,42.9,246.3,45.3z M256.4,62.6c-2.1,2.6-4.8,2.8-7.6,1.2c-3.2-1.8-2.4-5.1-2.5-8.4c0.3-2.2-0.9-5.1,1.9-6.9
	c2.6-1.8,5.2-2,7.7,0.2C258.8,51.4,259.1,59.3,256.4,62.6z"/>
<path class="st5" d="M81.8,49.2c3-1.4,4.4,0.5,5.9,2.9c1,1.7,3.4,1.3,5,0.4c1.4-0.8,0.4-2.4-0.1-3.6c-0.8-1.9-2.2-3.4-4.2-4.1
	c-4.1-1.6-8.3-1.7-11.8,1.4c-4.4,3.8-4.6,9-3.4,14.3c1,4.3,3.8,7,8.2,7.7c4,0.6,7.7-0.2,10.3-3.6c0.9-1.2,2.6-3,0.8-4.3
	c-1.3-1-3.8-1.2-5,0.5c-1.6,2.3-3.4,3.3-5.9,2.1c-2.7-1.3-2.4-4.1-2.6-6.6C79.3,53.5,78.8,50.5,81.8,49.2z"/>
<path class="st8" d="M252.6,106.8c-0.5-2.8,3.2-3.8,4.5-6.1c0.1-0.2,0.1-0.4,0.3-0.9c-4.7-0.6-5.4,4.5-9,5.9c0-3.6,0.1-6.9,0-10.3
	c0-0.9,0.5-2.5-1.3-2.4c-1.8,0-1.3,1.5-1.3,2.5c-0.1,5.6-0.1,11.2,0,16.8c0,1.1-0.9,3.2,1.2,3.2c2.5,0.1,1.1-2.2,1.5-3.3
	c0.1-0.3,0.1-0.7,0-1c-0.1-1,0.5-1.8,1.3-2.2c1.2-0.7,1.5,0.7,2,1.2c1.1,1.3,2.1,2.6,3,4c0.9,1.3,2.1,1.8,3.8,0.9
	c-0.5-0.7-0.9-1.4-1.4-2C255.3,111,253,109.1,252.6,106.8z"/>
<path class="st9" d="M264.7,99.7c-3.4,1.1-5.5,5.2-4.8,9.7c0.6,4,3.3,6.5,7.4,6.5c1.5,0.1,3-0.3,4.2-1.3c0.6-0.5,1.8-1,1-2.1
	c-0.8-1.1-1.5-0.1-2.2,0.3c-3,1.7-5.9,0.9-7.1-1.8c-0.7-1.6-0.5-2.6,1.6-2.5c2.2,0.1,4.5,0,6.7,0c0.9,0,1.7,0,2-1.3
	C274.4,102.3,269.5,98.1,264.7,99.7z M266.8,106.4c-1.2-0.8-3.6,0.9-3.7-1.6c-0.1-1.9,1.5-3.2,3.6-3.2c2.1-0.1,3.6,1,3.6,3.1
	C270.4,107.4,268,105.6,266.8,106.4z"/>
<path class="st10" d="M218.9,99.4c-4.3,0-7.2,3.4-7.2,8.4c0.1,5,3,8.2,7.4,8.2c4.3-0.1,7.2-3.4,7.2-8.4
	C226.2,102.5,223.2,99.3,218.9,99.4z M218.8,113.6c-2.7-0.1-4.5-2.6-4.4-6.1c0.1-3.6,1.8-5.9,4.7-5.8c2.8,0.1,4.4,2.4,4.4,6.1
	C223.4,111.4,221.6,113.7,218.8,113.6z"/>
<path class="st9" d="M283.3,44.3c-2.1-0.9-3.3,0.5-3.9,2.6c-1.3,4.5-2.7,8.9-4.6,14.7c-2-6-3.7-10.7-5.2-15.4
	c-0.6-1.9-1.9-2.3-3.4-1.9c-2.3,0.6-0.9,2.1-0.5,3.1c1.9,5.5,3.9,10.9,5.9,16.4c1.9,5.3,1.2,7.2-3.9,9.9c-1,0.5-1.8,0.9-1.6,2.1
	c0.2,1.6,1.6,1.5,2.7,1.4c3.8-0.2,5.4-2.9,6.5-6c2.7-7.7,5.4-15.4,8-23.1C283.7,47,285.4,45.3,283.3,44.3z"/>
<path class="st11" d="M237.6,102c0.6,0.2,1.1,0.7,1.5,1.3c0.7,1.1,1.3,2.6,2.6,1.6c1.3-1,0.1-2.4-0.7-3.4c-0.8-1-1.9-1.6-3.1-1.9
	c-5.2-1.2-8.8,2.1-8.9,8c0,4.1,1.5,6.9,4.5,7.9c2.8,0.9,5.4,0.5,7.4-1.6c0.7-0.8,2.1-2,0.7-3.1c-1.1-0.9-1.8,0.5-2.6,1.3
	c-1.5,1.8-3.4,2-5.4,0.8c-2-1.3-2.7-6.5-1.3-9C233.6,101.7,235.4,101.2,237.6,102z"/>
<path class="st3" d="M44.1,44c-1.1,0.3-2.1,1.2-3.2,1.2c-6.8,0.1-6.8,0-6.8,6.7c0,1.2,0,2.3,0,3.5l0,0c0,3.2,0.1,6.3,0,9.5
	c-0.1,2.6,1.5,2.9,3.5,2.9c2.2,0,2.8-1.1,2.7-3.1c-0.1-2.7,0.1-5.3,0-8c-0.2-3.8,0.1-7,5.1-7.1c2.6-0.1,1.8-2.3,1.8-3.8
	C47.3,43.4,45.5,43.7,44.1,44z"/>
<path class="st12" d="M144.3,99.6c-1.7,0-2.1,0.8-2.1,2.3c0.1,1.8,0,3.6,0,5.3c0,2,0.1,4,0,6c-0.1,1.8,0.6,2.4,2.4,2.4
	c1.7,0,2.1-0.9,2.1-2.3c0-3.8-0.1-7.6,0-11.4C146.7,100.2,146.1,99.6,144.3,99.6z"/>
<path class="st13" d="M281.9,113.5c-1.5-0.3-1.5-1.5-1.5-2.6c0-2.2,0-4.5,0-6.7c0-1.3-0.1-2.6,1.8-2.4c0.7,0,1-0.4,0.9-1.1
	c0-0.5-0.3-0.9-0.8-0.9c-2,0.1-2-1.3-2-2.7c0-0.7-0.3-1.3-1.1-1.3c-0.5,0-1.4,0-1.4,0.5c0,2.1-0.6,3.5-2.9,3.9
	c-0.3,0.1-0.2,1.3,0.3,1.3c3.5,0.1,2.2,2.7,2.3,4.4c0.2,2.1,0,4.2,0.1,6.4c0.1,2,1.1,3.4,3.3,3.6c0.8-0.1,1.9,0.3,2.2-0.9
	C283.5,114,282.8,113.6,281.9,113.5z"/>
<path class="st3" d="M202.4,55.9c0-2.8-0.1-5.6,0-8.4c0.1-2.1-0.4-3.4-3-3.4c-2.2,0-3.4,0.7-3.3,3.1c0.1,5.8,0.1,11.6,0,17.4
	c0,2.4,1,3.1,3.3,3.2c2.5,0,3.1-1.2,3-3.4C202.3,61.6,202.4,58.8,202.4,55.9z"/>
<path class="st14" d="M357.6,11.6c-13.1-1.7-40.4,17.4-39.8,27.9C327.7,24.9,341.4,16.5,357.6,11.6z"/>
<path class="st15" d="M422.3,38.9c-0.6-11-29.5-30.5-41-26.8C398.8,16.6,412.5,24.9,422.3,38.9z"/>
<path class="st16" d="M405.8,124.9c-0.7,0.5-1.3,1.2-0.6,2.1c0.7,0.8,1.5,0.3,2.2-0.1c5.8-4,10.7-8.8,14.8-14.5
	c0.8-1.1,1.1-2.3-0.2-4.1C417.5,114.9,412.2,120.4,405.8,124.9z"/>
<path class="st17" d="M317.5,107.8c0.4,7,11.9,18.6,18.3,18.8C329.1,121.2,323.1,115.3,317.5,107.8z"/>
<path class="st18" d="M199,34.9c-1.9,0-3.2,1-3.2,2.9c0,2.2,1.4,3.2,3.5,3.2c1.8-0.1,3.2-0.9,3.2-3C202.6,35.8,201.1,34.9,199,34.9z
	"/>
<path class="st19" d="M144.5,93.4c-1.4,0-2.4,0.5-2.4,2.1c0.1,1.3,0.9,1.9,2.2,2c1.4-0.1,2.4-0.7,2.4-2.2
	C146.7,94.1,145.9,93.4,144.5,93.4z"/>
</svg>
