<?xml version="1.0" encoding="utf-8"?>
<!-- Generator: Adobe Illustrator 24.0.2, SVG Export Plug-In . SVG Version: 6.00 Build 0)  -->
<svg version="1.1" id="Capa_1" xmlns="http://www.w3.org/2000/svg" xmlns:xlink="http://www.w3.org/1999/xlink" x="0px" y="0px"
	 viewBox="0 0 164.1 162.1" style="enable-background:new 0 0 164.1 162.1;" xml:space="preserve">
<style type="text/css">
	.st0{fill:#DFE4DE;}
	.st1{fill:#3F3F6D;}
	.st2{fill:#3E3F6C;}
	.st3{fill:#3B3C6A;}
	.st4{fill:#3A3B6A;}
	.st5{fill:#42436E;}
	.st6{fill:#DEE4DE;}
	.st7{fill:#DEE3DE;}
</style>
<g>
	<path class="st0" d="M159.6,81.8c1.3,41.2-34.7,79.7-80,78.3C38,158.9,2.8,125.4,3.1,80.5C3.5,38.9,38.3,1.5,85.4,3.4
		C124.8,5,160.8,38.9,159.6,81.8z"/>
	<path class="st1" d="M107.9,73c-4.3,0-8.6-0.1-13,0c-2.5,0-3.6-1.1-3.6-3.5c0-8.9,0-17.8,0-26.7c0-2.5,1.3-3.6,3.7-3.6
		c8.9,0,17.8,0,26.7,0c2.4,0,3.5,1.1,3.5,3.6c-0.1,8.9-0.1,17.8,0,26.7c0,2.5-1,3.5-3.5,3.5C117.1,72.9,112.5,73,107.9,73z"/>
	<path class="st2" d="M73.1,56c0,4.5,0,8.9,0,13.4c0,2.4-1,3.6-3.5,3.6c-9,0-18.1,0-27.1,0c-2.3,0-3.3-1.1-3.2-3.4
		c0.1-8.9,0.1-17.8,0-26.7c0-2.8,1.4-3.7,3.9-3.7c8.8,0,17.5,0,26.3,0c2.6,0,3.8,1.3,3.7,3.9C73,47.4,73.1,51.7,73.1,56z"/>
	<path class="st3" d="M125.2,108.8c0,4.3,0,8.6,0,13c0,2.5-1.1,3.6-3.5,3.6c-8.9,0-17.8,0-26.7,0c-2.5,0-3.6-1.3-3.6-3.7
		c0-8.9,0-17.8,0-26.7c0-2.5,1.2-3.5,3.6-3.5c8.9,0,17.8,0,26.7,0c2.5,0,3.5,1.1,3.5,3.6C125.1,99.6,125.2,104.2,125.2,108.8z"/>
	<path class="st4" d="M72.3,123.8c-0.9,1.4-2.2,1.6-3.7,1.6c-8.4,0-16.8-0.1-25.1,0c-2.9,0-4.3-1-4.2-4.1c0.1-8.6,0.1-17.3,0-25.9
		c0-2.3,0.5-3.9,3.2-3.9c9.2,0,18.3,0,27.5,0c0.9,0,1.9,0,2.3,1c0.9,4.5,0.4,9.1,0.4,13.7C72.6,112.1,73.1,118,72.3,123.8z"/>
	<path class="st5" d="M72.3,123.8c0-10.4,0-20.9,0-31.3c0.2,0.3,0.6,0.6,0.6,0.9c0.3,10,0.4,19.9,0,29.9
		C72.8,123.5,72.5,123.7,72.3,123.8z"/>
	<path class="st0" d="M108.5,41.9c3.9,0,7.8,0.1,11.8,0c1.8,0,2.5,0.6,2.5,2.5c-0.1,7.8-0.1,15.7,0,23.5c0,2-0.6,2.8-2.7,2.7
		c-7.8-0.1-15.7-0.1-23.5,0c-2,0-2.8-0.6-2.8-2.7c0.1-7.8,0.1-15.7,0-23.5c0-1.9,0.7-2.5,2.6-2.5C100.4,41.9,104.5,41.9,108.5,41.9z
		"/>
	<path class="st6" d="M56.2,41.9c3.8,0,7.6,0.1,11.4,0c2.1-0.1,3.1,0.4,3,2.8c-0.1,7.7-0.1,15.4,0,23.1c0,2-0.5,2.8-2.6,2.8
		c-7.8-0.1-15.7-0.1-23.5,0c-2.4,0-2.8-0.9-2.8-3c0.1-7.6,0.1-15.2,0-22.8c-0.1-2.6,0.9-3.1,3.2-3C48.6,42,52.4,41.9,56.2,41.9z"/>
	<path class="st7" d="M122.8,108.5c0,3.8-0.1,7.6,0,11.4c0.1,2.1-0.5,3-2.8,3c-7.7-0.1-15.4-0.1-23.2,0c-2.1,0-3.1-0.5-3-2.9
		c0.1-7.7,0.1-15.4,0-23.2c0-2.2,0.7-3,2.9-3c7.7,0.1,15.4,0.1,23.2,0c2.2,0,3,0.6,2.9,2.8C122.6,100.7,122.8,104.6,122.8,108.5z"/>
	<path class="st7" d="M70.7,121.5c-0.6,1.6-2.1,1.3-3.3,1.3c-7.6,0-15.2,0-22.7,0c-2,0-3.1-0.3-3-2.7c0.1-7.8,0.1-15.7,0-23.5
		c0-2,0.5-2.8,2.6-2.7c8.8,0.1,17.5,0.1,26.3,0.2c0.8,0.5,0.6,1.4,0.6,2.1C70.8,104.6,71.6,113.1,70.7,121.5z"/>
	<path class="st5" d="M70.7,121.5c-0.1-9.2-0.1-18.3-0.2-27.5c0.9,0.4,1,1.1,1,1.9c0,7.9,0,15.9,0,23.8
		C71.4,120.4,71,121,70.7,121.5z"/>
</g>
</svg>
