<?xml version="1.0" encoding="utf-8"?>
<!-- Generator: Adobe Illustrator 24.0.2, SVG Export Plug-In . SVG Version: 6.00 Build 0)  -->
<svg version="1.1" id="Capa_1" xmlns="http://www.w3.org/2000/svg" xmlns:xlink="http://www.w3.org/1999/xlink" x="0px" y="0px"
	 viewBox="0 0 190.5 191.2" style="enable-background:new 0 0 190.5 191.2;" xml:space="preserve">
<style type="text/css">
	.st0{fill:#DFE4DE;}
	.st1{fill:#373868;}
	.st2{fill:#B9BDC4;}
	.st3{fill:#383968;}
	.st4{fill:#383868;}
	.st5{fill:#3B3C6A;}
	.st6{fill:#DEE4DE;}
</style>
<g>
	<path class="st0" d="M187.9,96.6c-0.1,50.5-40.8,91-91.2,90.9c-50.1-0.1-90.9-41-90.8-91C5.9,46.4,47,5.4,97.2,5.6
		C147.4,5.8,188,46.6,187.9,96.6z"/>
	<path class="st1" d="M97.6,143.7c-6.5,0-13,0.2-19.5,0c-17.7-0.5-28.6-11.5-28.4-29.2c0.1-14-1.1-28,0.7-41.9
		C52.2,59.3,62.7,49.8,76,49.6c13.3-0.3,26.7-0.3,40,0c15.8,0.3,26.8,9.8,27.8,25c1,14.9,1.3,30-0.3,44.9
		c-1.5,14.7-12.2,24-26.9,24.2C110.3,143.7,103.9,143.7,97.6,143.7z"/>
	<path class="st0" d="M58.3,95.6c0-6.3-0.1-12.7,0-19c0.2-10.8,5.2-17,16-18.1c14.9-1.5,29.9-1.2,44.9-0.2
		c10.6,0.7,15.9,7.1,16.2,18.5c0.3,13.6,0.3,27.3,0,40.9c-0.3,10.9-7.2,17.1-19.6,17.5c-13,0.4-26,0.3-39,0
		c-11.5-0.3-17.5-6.5-18.4-18.1c0-0.5-0.1-1-0.1-1.5C58.3,109,58.3,102.3,58.3,95.6C58.3,95.6,58.3,95.6,58.3,95.6z"/>
	<path class="st4" d="M96.8,72.3c13.7-0.1,24.5,10.6,24.6,24.2c0,13.5-10.8,24.5-24.4,24.6c-13.6,0.1-24.5-10.8-24.6-24.3
		C72.4,83.1,83.1,72.4,96.8,72.3z"/>
	<path class="st5" d="M122.1,66c3.4,0.5,5.6,2.2,5.3,5.9c-0.2,3.6-2.5,5.5-5.9,5.3c-3.1-0.2-5.2-2.3-5.1-5.6
		C116.4,67.9,118.7,66.3,122.1,66z"/>
	<path class="st6" d="M112.7,96.5c0.1,8.7-7,15.9-15.6,16c-9,0.1-16.1-7-16-16.1c0.1-8.8,7.1-15.8,15.9-15.8
		C105.6,80.6,112.7,87.7,112.7,96.5z"/>
</g>
</svg>
