<?xml version="1.0" encoding="utf-8"?>
<!-- Generator: Adobe Illustrator 24.0.2, SVG Export Plug-In . SVG Version: 6.00 Build 0)  -->
<svg version="1.1" id="Capa_1" xmlns="http://www.w3.org/2000/svg" xmlns:xlink="http://www.w3.org/1999/xlink" x="0px" y="0px"
	 viewBox="0 0 476.1 121.9" style="enable-background:new 0 0 476.1 121.9;" xml:space="preserve">
<style type="text/css">
	.st0{fill:#373868;}
	.st1{fill:#393A69;}
	.st2{fill:#F3F3F6;}
</style>
<g>
	<path class="st0" d="M95.1,9.6c-23-0.1-46-0.1-69,0c-11.4,0-17.8,6.6-17.8,18.1c0,22.8,0,45.6,0,68.4c0,11.5,6.5,18.1,17.9,18.2
		c11.3,0.1,22.7,0,34,0c11.7,0,23.3,0.1,35,0c11.5-0.1,17.8-6.6,17.8-18.2c0-22.8,0-45.6,0-68.4C113,16.3,106.5,9.7,95.1,9.6z
		 M81.7,52.6c-1.4,3.9-1.3,8.5-3,12.5c-6.9,16.4-26.5,23.1-42.3,13.9c4-1.3,8.2-1,11.6-3.9c-2-1.4-3.9-2.4-5.5-3.9
		c-1.2-1.1-3.2-2.2-1.2-4.4c1.4-1.6-1-1.9-1.4-2.9c-1.1-2.5-6.4-4.4-1.2-8c0.2-0.1-0.4-1.4-0.7-2.1c-0.5-1.6-1.3-3.1-1.6-4.7
		c-0.3-1.8-0.6-4.1,1.1-5.1c1.9-1.1,2.8,1.2,3.9,2.2c3.1,2.7,6.5,4.6,10.3,5.9c6.2,2.2,6.5,2.1,8.6-4.2c1.9-5.8,8.3-8.8,14.2-6.6
		c5.3,2,5.3,2,9.1,1.4C85.5,46.6,82.9,49.3,81.7,52.6z"/>
	<path class="st0" d="M350.6,26.4c-0.2-9.9-6.9-16.7-16.7-16.7c-23.7-0.1-47.3-0.1-71,0c-10.2,0-16.9,6.7-16.9,17
		c-0.1,23.5-0.1,46.9,0,70.4c0,10.5,6.5,17.2,17.2,17.3c23.3,0.1,46.6,0.1,70,0c11.1-0.1,17.5-6.8,17.5-18c0.1-11.5,0-23,0-34.5
		c0,0,0,0,0,0C350.7,50,350.8,38.2,350.6,26.4z M279,88.2c-2.5-0.3-6.4,1.8-6.3-3.5c0.1-9.3,0.1-18.6-0.1-27.8
		c-0.1-5.2,3.7-3.5,6.3-3.7c2.7-0.2,5.4-0.5,5.2,3.8c-0.3,4.6-0.1,9.3-0.1,13.9c0,4.5-0.2,9,0.1,13.4
		C284.3,88.4,281.8,88.6,279,88.2z M278.2,48.2c-4-0.1-6.2-2.5-6.1-6.4c0.1-3.9,2.5-6.2,6.4-6.1c3.9,0.1,5.9,2.5,6.2,6.2
		C284.2,45.9,282.2,48.3,278.2,48.2z M318.3,88.4c-3.8,0.1-5.4-0.9-5.1-5c0.4-4.8,0.1-9.6,0.1-14.5c0-3.5-0.9-6.5-5-6.7
		c-4.3-0.2-6.5,2.4-6.8,6.4c-0.3,5-0.5,10-0.1,14.9c0.4,5-2.4,4.7-5.8,4.8c-3.8,0.1-5.8-0.4-5.6-5c0.4-8.3,0-16.6,0.1-24.9
		c0-1.8-1.1-4.6,1.7-5c2.8-0.4,6.6-1.7,8.4,0.9c1.8,2.5,2.4,0.9,3.6,0.1c8.6-5.4,18.9-0.5,19.9,9.6c0.4,3.6,0.1,7.3,0.1,11
		c0,0,0.1,0,0.1,0c0,2.8-0.3,5.7,0.1,8.5C324.6,88.1,321.9,88.3,318.3,88.4z"/>
	<path class="st0" d="M469.4,26.6c-0.1-10.2-6.8-16.9-17-16.9c-23.7-0.1-47.3-0.1-71,0c-9.9,0-16.6,6.9-16.6,16.8
		c-0.1,23.6-0.1,47.3,0,70.9c0,10.2,6.7,16.9,17,17c23.5,0.1,47,0.1,70.5,0c10.6-0.1,17.1-6.8,17.2-17.3c0.1-11.7,0-23.3,0-35
		C469.4,50.2,469.5,38.4,469.4,26.6z M436.8,79.4c-3.2,3.5-7,6-11.5,7.7c-3.3,1.3-5.1,0.8-4.7-3.2c0.2-1.6,0-3.3,0-5
		c0-1.5,0.1-3,0-4.5c-0.2-2.9-0.1-5.3,4-5c3.2,0.2,2.6-2.9,3-4.8c0.6-2.6-1.3-2.6-3-2.6c-2.3,0.1-3.9-0.4-3.7-3.3
		c0.1-2.7,0.3-5.3,3.7-5.5c2.9-0.1,4.2-1,4-4.1c-0.2-3.3-2.5-3-4.6-3.1c-7.1-0.4-10.8,3-11,10.3c-0.1,3.1,0.4,6.1-4.4,5.7
		c-2.8-0.2-2,2.5-2.1,4.1c-0.1,1.8,0.3,3.5,2.6,3.2c3.7-0.4,4,1.7,3.9,4.6c-0.1,3-0.3,6,0,9c0.4,4.7-1.5,4.9-5.3,3.5
		c-10.5-3.9-17.4-14.6-16.8-26.3c0.6-11.3,9-21.2,20.1-23.8c10.9-2.6,22.6,2.3,28.4,11.9C445.5,58.1,444.3,71.1,436.8,79.4z"/>
	<path class="st0" d="M214.1,9.6c-11.5-0.1-23,0-34.5,0c-11.5,0-23,0-34.5,0c-11.3,0-17.9,6.4-17.9,17.5c-0.1,23.3-0.1,46.6,0,69.9
		c0,10.6,6.6,17.2,17.2,17.2c23.3,0.1,46.6,0.1,70,0c10.9-0.1,17.4-6.6,17.5-17.5c0.1-23.1,0.1-46.3,0-69.4
		C231.8,16.2,225.2,9.7,214.1,9.6z M206.8,72c-0.3,11.2-6.4,17.2-17.5,17.3c-6.7,0.1-13.3,0.1-20,0c-10.9-0.3-16.9-6.5-17-17.3
		c0-3.3,0-6.7,0-10c0,0,0.1,0,0.1,0c0-4-0.2-8,0-12c0.6-9.2,6.8-15,15.9-15.2c7.2-0.2,14.3-0.2,21.5,0c11,0.3,16.8,6.3,17,17.3
		C206.9,58.7,206.9,65.3,206.8,72z"/>
	<path class="st1" d="M192.8,40.1c-8.9-0.7-17.9-0.9-26.9,0.1c-5.4,0.7-8.4,3.9-8.6,9.4c-0.3,8.1-0.4,16.3,0.1,24.4
		c0.4,6.9,4.1,9.9,11.1,10.1c3.5,0.1,7,0,10.5,0c0-0.1,0-0.1,0-0.2c4.3,0,8.7,0.3,12.9-0.1c5.9-0.5,9-3.3,9.4-9.1
		c0.7-8.6,0.7-17.3-0.1-25.9C201,43.7,197.9,40.5,192.8,40.1z M179,76.1c-7.9-0.2-13.9-6.8-13.7-14.8c0.3-7.6,6.7-13.7,14.4-13.6
		c8,0.2,14,6.5,13.9,14.5C193.4,70.3,187,76.3,179,76.1z M193.6,50.9c-2.2-0.2-3.2-1.6-3-3.7c0.2-1.8,1.4-3,3.4-2.9
		c2.2,0.1,3.1,1.5,3.4,3.2C196.9,49.8,195.8,51.1,193.6,50.9z"/>
	<path class="st2" d="M179.1,71c-4.7-0.2-8.7-4.3-8.7-9.1c0-4.8,4-8.8,8.8-8.9c5.2-0.1,9.2,3.9,9.2,9C188.4,67,184.1,71.1,179.1,71z
		"/>
	<path class="st1" d="M179.3,53c-4.9,0.1-8.8,4-8.8,8.9c0,4.8,3.9,8.9,8.7,9.1c5,0.2,9.3-3.9,9.3-9C188.5,56.9,184.5,52.9,179.3,53z
		"/>
</g>
</svg>
