<?xml version="1.0" encoding="utf-8"?>
<!-- Generator: Adobe Illustrator 24.0.2, SVG Export Plug-In . SVG Version: 6.00 Build 0)  -->
<svg version="1.1" id="Capa_1" xmlns="http://www.w3.org/2000/svg" xmlns:xlink="http://www.w3.org/1999/xlink" x="0px" y="0px"
	 viewBox="0 0 63.7 64" style="enable-background:new 0 0 63.7 64;" xml:space="preserve">
<style type="text/css">
	.st0{fill:#383968;}
</style>
<path class="st0" d="M50.2,11c-12.1-0.8-24.3-0.8-36.4,0c-5.7,0.4-8.6,3.2-9,8.9C4.1,28.2,4,36.6,4.9,44.9c0.6,5.6,3.6,8.3,9.3,8.5
	c6,0.3,12,0.1,18,0.1c0,0,0,0,0,0c5.8,0,11.7,0.2,17.5-0.1c6.4-0.3,9.5-3.3,9.7-9.7c0.3-7.6,0.3-15.3,0-23
	C59.1,14.5,56.3,11.4,50.2,11z M11.5,19.5c0.5-1.7,2.1-2.1,3.6-2.1c5.7,0,11.3,0,17,0c0,0,0,0,0,0c5.3,0,10.6,0,16,0
	c1.9,0,3.9,0.1,4.5,2.3c0.6,2.4-1.8,2.3-3,3.3c-0.1,0.1-0.3,0.2-0.4,0.2c-17.6,9-17.6,9-35-0.6C12.8,21.9,10.9,21.6,11.5,19.5z
	 M53.1,32c-0.2,3.1-0.1,6.3,0,9.5c0.1,3.9-1.5,5.8-5.6,5.8c-10.3-0.1-20.6-0.1-30.8,0c-4,0-5.7-1.6-5.5-5.7c0.2-4,0-7.9,0-12.9
	c5.5,2.7,10.2,4.9,14.7,7.3c4.2,2.2,8.1,2.3,12.3,0c3.8-2.1,7.7-3.8,11.5-5.8C52,28.8,53.3,28.7,53.1,32z"/>
</svg>
