<?xml version="1.0" encoding="utf-8"?>
<!-- Generator: Adobe Illustrator 24.0.2, SVG Export Plug-In . SVG Version: 6.00 Build 0)  -->
<svg version="1.1" id="Capa_1" xmlns="http://www.w3.org/2000/svg" xmlns:xlink="http://www.w3.org/1999/xlink" x="0px" y="0px"
	 viewBox="0 0 190.5 191.2" style="enable-background:new 0 0 190.5 191.2;" xml:space="preserve">
<style type="text/css">
	.st0{fill:#DFE4DE;}
	.st1{fill:#373868;}
	.st2{fill:#B9BDC4;}
	.st3{fill:#383968;}
	.st4{fill:#383868;}
	.st5{fill:#3B3C6A;}
	.st6{fill:#DEE4DE;}
</style>
<g>
	<path class="st0" d="M187.4,96.3c0,50.5-40.5,91.1-91,91.2c-50.1,0.1-91-40.7-91.1-90.7C5.2,46.6,46.2,5.6,96.4,5.6
		C146.5,5.6,187.3,46.3,187.4,96.3z"/>
	<path class="st1" d="M59,85.4c-5-6.7-7-13.7-2.5-22c5.9,6,12,11,19.3,14.4c4.9,2.2,10,3.4,15.3,4.4c3.2,0.6,3.8-0.4,3.8-3.5
		c0-14.8,15.1-23.8,27.7-16.2c4.6,2.8,8.2,2.3,12.4,0.5c0.9-0.4,1.8-0.8,3.3-1.5c-0.5,4.2-3.4,6.3-5.6,8.7c2.4,1.2,4.6-1.1,7-0.3
		c0.1,2.2-1.4,3.5-2.8,4.4c-4,2.4-4.8,5.8-5.1,10.3c-2.1,37.8-43,60.7-76.5,42.9c-0.7-0.4-1.3-0.8-2.9-1.8c9.1-0.5,16.8-1.8,24.2-7
		c-7.8-1.8-13.8-5.1-16.3-12.6c1.8-1.4,4.1,0.1,6.1-1.9c-6.1-3-10.6-7.4-12.3-14.1c-0.5-2-1.1-4.3,2.4-3.4
		C57.8,86.9,59.3,87.7,59,85.4z"/>
	<path class="st2" d="M59,85.4c0.9,0.4,2.2,1.5,1.8,1.9c-1.4,1.3-2.9,0.4-4.1-0.7C57.5,86.3,58.3,85.9,59,85.4z"/>
</g>
</svg>
