<?xml version="1.0" encoding="utf-8"?>
<!-- Generator: Adobe Illustrator 24.0.2, SVG Export Plug-In . SVG Version: 6.00 Build 0)  -->
<svg version="1.1" xmlns="http://www.w3.org/2000/svg" xmlns:xlink="http://www.w3.org/1999/xlink" x="0px" y="0px"
	 viewBox="0 0 183 195" style="enable-background:new 0 0 183 195;" xml:space="preserve">
<style type="text/css">
	.st0{fill:#243762;}
	.st1{opacity:0.12;}
	.st2{fill:#C5D9FF;}
	.st3{opacity:0.89;}
	.st4{opacity:0.12;clip-path:url(#SVGID_2_);fill:#FFFFFF;}
	.st5{opacity:0.2;clip-path:url(#SVGID_2_);fill:#FFFFFF;}
	.st6{opacity:0.43;fill:#4C65BA;}
	.st7{opacity:0.57;fill:#4C65BA;}
	.st8{fill:none;}
	.st9{fill:#FFFFFF;}
	.st10{opacity:0.4;fill:#AF9CDA;}
	.st11{clip-path:url(#SVGID_4_);}
	.st12{fill:#F2F2F2;}
	.st13{fill:#F9D9EB;}
	.st14{opacity:0.46;fill:#EF92C7;}
	.st15{fill:#EF92C7;}
	.st16{opacity:0.89;fill:#AACE9B;}
	.st17{opacity:0.89;fill:#4C65BA;}
	.st18{fill:#F9F9F9;}
	.st19{font-family:'Colaborate-Bold';}
	.st20{font-size:23.8288px;}
	.st21{letter-spacing:-1;}
</style>
<g id="BACKGROUND">
</g>
<g id="OBJECTS">
	
		<ellipse transform="matrix(0.1576 -0.9875 0.9875 0.1576 -31.1845 182.8741)" class="st10" cx="91.6" cy="109.7" rx="52.6" ry="52.6"/>
	
		<ellipse transform="matrix(0.7071 -0.7071 0.7071 0.7071 -44.7176 94.499)" class="st10" cx="91.7" cy="101.2" rx="60.8" ry="60.8"/>
	<g>
		<g>
			<defs>
				
					<ellipse id="SVGID_3_" transform="matrix(0.1576 -0.9875 0.9875 0.1576 -31.1845 182.8741)" cx="91.6" cy="109.7" rx="52.6" ry="52.6"/>
			</defs>
			<clipPath id="SVGID_2_">
				<use xlink:href="#SVGID_3_"  style="overflow:visible;"/>
			</clipPath>
			<g style="clip-path:url(#SVGID_2_);">
				<g>
					<path class="st12" d="M109.3,110.5H73.9c-13.1,0-23.8,10.2-23.8,22.8v46.8h83v-46.8C133.1,120.7,122.4,110.5,109.3,110.5z"/>
					<g>
						<path class="st9" d="M69.8,132.4c-0.1,0-0.2,0.1-0.2,0.2v8.9L64.7,130c-0.1-0.1-0.2-0.2-0.3-0.1c-0.1,0.1-0.2,0.2-0.1,0.3
							l5.3,12.6v3.3v0v34c0,0.1,0.1,0.2,0.2,0.2c0.1,0,0.2-0.1,0.2-0.2v-34v0v-13.4C70,132.5,69.9,132.4,69.8,132.4z"/>
						<path class="st9" d="M119.4,129.8c-0.1-0.1-0.3,0-0.3,0.1l-4.7,11v-8.3c0-0.1-0.1-0.2-0.2-0.2s-0.2,0.1-0.2,0.2v9.5l-0.2,0.5
							c-0.1,0.1,0,0.3,0.1,0.3c0,0,0,0,0.1,0v3.1v0.1v33.9c0,0.1,0.1,0.2,0.2,0.2s0.2-0.1,0.2-0.2v-33.9V146v-3.8l5.1-12.1
							C119.6,130,119.6,129.9,119.4,129.8z"/>
					</g>
				</g>
				<g>
					<g>
						<g>
							<g>
								<g>
									<path class="st13" d="M100,107.4c-0.5,0.1-1,0.2-1.6,0.2H85.5c-0.5,0-1.1-0.1-1.6-0.2c-1.4-0.3-2.7-1.1-3.7-2.1v4.5
										c0,6.5,5.2,11.7,11.7,11.7c6.5,0,11.7-5.2,11.7-11.7v-4.5C102.7,106.3,101.4,107.1,100,107.4z"/>
									<path class="st14" d="M85.5,107.6c-0.5,0-1.1-0.1-1.6-0.2c2,1.9,4.8,3.1,8,3.1c3.2,0,6-1.2,8-3.1c-0.5,0.1-1,0.2-1.6,0.2
										H85.5z"/>
								</g>
								<g>
									<path class="st13" d="M76.6,86.6C76.6,86.6,76.6,86.6,76.6,86.6C76.6,86.6,76.5,86.7,76.6,86.6c-0.2,0-0.3-0.1-0.3-0.2
										c0-2,1.4-2.4,2-2.5v-1.2c-0.1-0.2-0.2-0.3-0.3-0.5c-1.9,0.5-3.3,2.3-3.3,4.4c0,2.2,1.6,4,3.6,4.5v-1.9
										C77.3,88.7,76.6,87.7,76.6,86.6z"/>
									<path class="st13" d="M109.3,86.7c0-2.1-1.5-3.9-3.5-4.4c-0.1,0.1-0.1,0.3-0.2,0.4v1.1c0.1,0,0.2,0.1,0.3,0.1
										c0.5,0,2.2,0.4,2.2,2.5c0,0.1-0.1,0.2-0.2,0.2c0,0,0,0,0,0c0,1.2-0.9,2.3-2.2,2.8v1.6C107.7,90.7,109.3,88.9,109.3,86.7z"
										/>
									<path class="st15" d="M107.6,86.4c0-2-1.7-2-1.8-2c-0.1,0-0.1,0-0.2-0.1v5.2c1.3-0.5,2.2-1.6,2.2-2.8
										C107.7,86.6,107.6,86.5,107.6,86.4z"/>
									<path class="st15" d="M76.8,86.4c0,0.1-0.1,0.2-0.2,0.2c0,0,0,0,0,0c0,1.1,0.7,2,1.7,2.6v-4.8
										C77.8,84.5,76.8,84.9,76.8,86.4z"/>
									<path class="st14" d="M105.8,83.9c0,0,0.1,0,0.1,0c-0.1,0-0.2-0.1-0.3-0.1V84C105.7,83.9,105.7,83.9,105.8,83.9z"/>
									<path class="st0" d="M105.6,84v0.3c0,0,0.1,0.1,0.2,0.1c0.1,0,1.8,0,1.8,2c0,0.1,0.1,0.2,0.2,0.2c0,0,0,0,0,0
										c0.1,0,0.2-0.1,0.2-0.2c0-2.1-1.7-2.4-2.2-2.5c-0.1,0-0.1,0-0.1,0C105.7,83.9,105.7,83.9,105.6,84z"/>
									<path class="st0" d="M76.3,86.4c0,0.1,0.1,0.2,0.2,0.2c0,0,0.1,0,0.1,0c0.1,0,0.2-0.1,0.2-0.2c0-1.6,1.1-1.9,1.6-2v-0.5
										C77.7,84,76.3,84.4,76.3,86.4z"/>
									<path class="st0" d="M105.6,84.3V84v-0.2v-1.1c0.1-0.1,0.1-0.3,0.2-0.4c0.3-0.8,0.6-1.5,0.9-2.1c2.3-4.8,3.8-12.5-3.2-13.4
										c-0.3,0-0.6-0.1-0.9-0.1c-2.5,0-4.7-1.3-6-3.4c0,0,0,0,0,0c-1.6-2.5-4.4-4.1-7.5-4.1c-4.9,0-9.2,4.5-8.9,9.4
										c-1.7,0.1-3.3,1.2-3.9,2.8c-0.4,1.1-0.3,2.4-0.2,3.6c0.2,1.8,0.6,3.6,1.2,5.4c0.2,0.7,0.5,1.3,0.8,1.9
										c0.1,0.2,0.2,0.3,0.3,0.5v1.2v0.5v4.8v1.9v9.2c0,1.9,0.7,3.6,1.9,4.9c1,1,2.3,1.8,3.7,2.1c0.5,0.1,1,0.2,1.6,0.2h12.9
										c0.5,0,1.1-0.1,1.6-0.2c1.4-0.3,2.7-1.1,3.7-2.1c1.2-1.3,1.9-3,1.9-4.9v-9.2v-1.6V84.3z"/>
								</g>
							</g>
							<g>
								<path class="st13" d="M81,87.3v-9.8c0-2.5,1.8-4.6,4-4.6h-0.5c-2.4,0-4.3,2-4.3,4.6v9.7c0,2.2,1.4,4,3.3,4.4
									C82.1,90.9,81,89.3,81,87.3z"/>
								<path class="st13" d="M99.3,73h-0.4c2.2,0,4,2.1,4,4.6v9.8c0,1.9-1,3.5-2.4,4.2c1.8-0.5,3.2-2.3,3.2-4.4v-9.7
									C103.6,75,101.7,73,99.3,73z"/>
								<path class="st14" d="M81,87.3v-9.8c0-2.5,1.8-4.6,4-4.6h-0.5c-2.4,0-4.3,2-4.3,4.6v9.7c0,2.2,1.4,4,3.3,4.4
									C82.1,90.9,81,89.3,81,87.3z"/>
								<path class="st14" d="M99.3,73h-0.4c2.2,0,4,2.1,4,4.6v9.8c0,1.9-1,3.5-2.4,4.2c1.8-0.5,3.2-2.3,3.2-4.4v-9.7
									C103.6,75,101.7,73,99.3,73z"/>
								<g>
									<path class="st13" d="M98.9,73h-0.7c-0.5,3.1-3.2,5.4-6.4,5.4c-3.2,0-5.9-2.3-6.4-5.4h-0.3c-2.2,0-4,2.1-4,4.6v9.8
										c0,1.9,1.1,3.6,2.5,4.3c0.5,0.2,1,0.3,1.5,0.3h2.4c0.6-1.4,1.9-2.4,3.5-2.4h2.5c1.6,0,2.9,1,3.5,2.4h1.9
										c0.6,0,1.1-0.1,1.6-0.4c1.4-0.7,2.4-2.3,2.4-4.2v-9.8C102.9,75,101.1,73,98.9,73z"/>
								</g>
							</g>
							<g>
								<path class="st0" d="M97.8,86.1L97.8,86.1c0.3,0,0.6-0.3,0.6-0.6v-1.1c0-0.3-0.3-0.6-0.6-0.6l0,0c-0.3,0-0.6,0.3-0.6,0.6
									v1.1C97.3,85.9,97.5,86.1,97.8,86.1z"/>
								<path class="st0" d="M86.6,86.1L86.6,86.1c0.3,0,0.6-0.3,0.6-0.6v-1.1c0-0.3-0.3-0.6-0.6-0.6l0,0c-0.3,0-0.6,0.3-0.6,0.6
									v1.1C86.1,85.9,86.3,86.1,86.6,86.1z"/>
								<g>
									<g>
										<path class="st0" d="M96.3,82.1c0.2,0.2,0.6,0.3,1,0.3c0.4,0.1,0.7,0.1,1,0.2c0.3,0.1,0.7,0.2,1,0.3
											c0.3,0.1,0.7,0.2,1,0.1c0.3-0.1,0.5-0.5,0.3-1.1c-0.2-0.6-0.8-1.4-1.8-1.6c-1-0.3-1.9,0.1-2.3,0.6
											C96.1,81.4,96.1,81.9,96.3,82.1z"/>
									</g>
								</g>
								<g>
									<g>
										<path class="st0" d="M84.1,83.1c0.3,0.1,0.7,0,1.1-0.1c0.4-0.1,0.7-0.2,1.1-0.3c0.3-0.1,0.7-0.1,1.1-0.2
											c0.4-0.1,0.8-0.1,1-0.3c0.2-0.2,0.2-0.7-0.3-1.2c-0.5-0.5-1.4-0.9-2.5-0.7c-1.1,0.2-1.7,1-1.9,1.7
											C83.5,82.6,83.8,83,84.1,83.1z"/>
									</g>
								</g>
								<path class="st9" d="M92.6,97.6l-1.3,0.1c-0.6,0-1.2-0.3-1.2-0.7l-0.2-2.8l7.1-0.3C97.3,97.6,95.2,97.4,92.6,97.6z"/>
								<path class="st0" d="M93.9,88.2h-2.5c-0.6,0-1.1-0.3-1.4-0.7c-0.3-0.5-0.4-1-0.2-1.6l1.3-5.2c0-0.1,0.2-0.2,0.3-0.2
									c0.1,0,0.2,0.2,0.2,0.3l-1.3,5.2c-0.2,0.4-0.1,0.8,0.1,1.1c0.2,0.3,0.6,0.5,1,0.5h2.5c0.1,0,0.2,0.1,0.2,0.2
									C94.2,88.1,94.1,88.2,93.9,88.2z"/>
							</g>
						</g>
					</g>
				</g>
				<g>
					<path class="st16" d="M96.7,127.4l-1.2-2.3l-1.4,2.7c-0.2,0.3-0.5,0.5-0.9,0.5h-1.7c-0.3,0-0.7-0.2-0.8-0.4l-1.8-3l-1.2,2.3
						l2.5,4.7c0,0,0,0,0,0l-2.6,30.7c0,0.1,0,0.2,0,0.3l4.1,11.3c0.2,0.6,1,0.6,1.2,0l3.9-11.3c0-0.1,0-0.2,0-0.3L94.5,132
						c0-0.1,0.1-0.1,0.1-0.2L96.7,127.4z M94.5,145.3c0,0,0,0.1,0,0.1l-1.9,5.5c-0.1,0.3-0.5,0.3-0.6,0l-2-5.5c0,0,0-0.1,0-0.1
						l1.1-12.8c0.1,0,0.1,0,0.2,0h2.2c0,0,0,0,0,0L94.5,145.3z"/>
					<path class="st17" d="M93.5,132.5h-2.2c-0.1,0-0.1,0-0.2,0L90,145.3c0,0,0,0.1,0,0.1l2,5.5c0.1,0.3,0.5,0.3,0.6,0l1.9-5.5
						c0,0,0-0.1,0-0.1L93.5,132.5C93.5,132.5,93.5,132.5,93.5,132.5z"/>
					<path class="st16" d="M93.5,132.5h-2.2c-0.1,0-0.1,0-0.2,0L90,145.3c0,0,0,0.1,0,0.1l2,5.5c0.1,0.3,0.5,0.3,0.6,0l1.9-5.5
						c0,0,0-0.1,0-0.1L93.5,132.5C93.5,132.5,93.5,132.5,93.5,132.5z"/>
					<path class="st17" d="M88.9,124.8l1.8,3c0.2,0.3,0.5,0.4,0.8,0.4h1.7c0.4,0,0.7-0.2,0.9-0.5l1.4-2.7l-3.4-6.7L88.9,124.8z"/>
					<path class="st16" d="M88.9,124.8l1.8,3c0.2,0.3,0.5,0.4,0.8,0.4h1.7c0.4,0,0.7-0.2,0.9-0.5l1.4-2.7l-3.4-6.7L88.9,124.8z"/>
					<polygon class="st9" points="104.9,107.2 92.1,117.6 79.4,107.2 73,116.8 87.1,128.5 87.7,127.2 88.9,124.8 92.1,118.4 
						95.5,125.1 96.7,127.4 97.2,128.5 111.3,116.8 					"/>
				</g>
			</g>
		</g>
		<g>
			<g>
				<path class="st13" d="M145.9,98.9c-0.9-0.6-2.1,0-2.5,1c-0.5,1.3-1.1,2.5-1.6,3.8c0.2-0.4,1.3-9.8,1.3-10.7
					c0-0.4,0.3-1.7-0.1-2.4c-0.2-0.3-0.5-0.4-0.9-0.4c-0.4,0-0.7,0-1.1,0.1c-0.3,0.2-0.5,0.5-0.7,0.8c-0.1,0.3-0.2,0.7-0.2,1
					c-0.5,2.8-0.9,5.6-1.3,8.4c0.1-3.9,0.5-7.7,0.7-11.5c0-0.6,0.1-1.2-0.1-1.8c-0.2-0.6-0.7-1.1-1.3-1.1c-0.6,0-1.1,0.4-1.4,0.9
					c-0.3,0.5-0.4,1.1-0.4,1.6c-0.3,1.8-0.5,3.5-0.8,5.3c-0.1,0.9-0.3,1.8-0.4,2.7c-0.1,0.4-0.1,0.9-0.2,1.3c-0.1,0.4,0,1-0.2,1.2
					c-0.1-0.8,0-1.6,0.1-2.4c0-0.8,0.1-1.7,0.1-2.5c0.1-1.6,0.1-3.3,0.2-4.9c0-0.6,0-1.2-0.1-1.8c-0.1-0.6-0.4-1.2-0.8-1.6
					c-0.4-0.4-1.1-0.6-1.7-0.4c-0.4,0.1-0.7,0.4-0.9,0.8c-0.2,0.4-0.4,0.8-0.5,1.1c-0.4,1.5-0.7,3.1-0.9,4.6
					c-0.2,1.6-0.5,3.3-0.6,4.9c-0.1,0.7-0.2,1.6-0.9,1.9c-0.6,0.3-1.3,0-1.5-0.7c-0.3-1.1-0.6-2.2-0.9-3.4c-0.2-0.9-0.6-1.7-1.3-2.2
					c-0.6-0.4-1.5-0.5-2.2-0.2c-0.7,0.3-1.2,0.9-1.4,1.6c-0.1,0.5-0.1,1,0,1.5c0.6,5.4,1.1,10.9,1.6,16.3l16.9,4.1l6-14.2
					C146.7,99.8,146.5,99.2,145.9,98.9z"/>
				<path class="st14" d="M130.7,107.2c0.1,0,0.2-0.1,0.2-0.2c1-5.8-3.2-8.5-3.3-8.6c-0.1-0.1-0.2,0-0.3,0.1c-0.1,0.1,0,0.2,0.1,0.3
					c0.2,0.1,4,2.6,3,8.1C130.4,107,130.5,107.1,130.7,107.2C130.6,107.2,130.7,107.2,130.7,107.2z"/>
			</g>
			<g>
				<g>
					<path class="st12" d="M122.1,111.6c-1.5-0.4-3,0.6-3.3,2.2l-5.9,39.4c0,0.3,0,0.5,0,0.8c0,15.2,22.3,16.7,24.3,1.6l4.9-36.6
						c0.2-1.4-0.7-2.6-2-2.9l-0.2-0.1l-16.9-4.1L122.1,111.6z"/>
				</g>
				<path class="st18" d="M140.9,125.9c0.2,0,0.4-0.2,0.4-0.4c0.1-0.3-0.1-0.5-0.4-0.6l-18.5-4.3c0,0,0,0,0,0l-1.1-5.4
					c-0.1-0.3-0.3-0.4-0.6-0.4c-0.3,0.1-0.4,0.3-0.4,0.6l1.1,5.4c0.1,0.4,0.4,0.7,0.8,0.8l18.5,4.3
					C140.8,125.9,140.8,125.9,140.9,125.9z"/>
				<path class="st18" d="M124.9,119.1c-0.9-0.2-1.5-1.1-1.3-2l0,0c0.2-0.9,1.1-1.5,2-1.3c0.9,0.2,1.5,1.1,1.3,2
					c-0.2,0.7-0.8,1.2-1.4,1.3C125.3,119.2,125.1,119.2,124.9,119.1z M124.5,117.3L124.5,117.3c-0.1,0.4,0.2,0.8,0.5,0.9
					c0.4,0.1,0.8-0.2,0.9-0.5c0.1-0.4-0.2-0.8-0.5-0.9c-0.1,0-0.2,0-0.3,0C124.9,116.8,124.6,117,124.5,117.3z"/>
			</g>
		</g>
	</g>
	<g>
		<path class="st16" d="M46.3,61.7c12,0,21.7,9.7,21.7,21.7c0,4.5-1.4,8.6-3.7,12.1c0,0.1,0.1,0.7,0.2,1.2c0.4,1.7,1.4,4.7,4,6.9
			c1.9,1.6-3.8,2.9-8,0.2c-0.8-0.6-1.6-1.3-2.3-2.2c0,0,0,0,0,0c-3.4,2.2-7.5,3.6-11.9,3.6c-12,0-21.7-9.7-21.7-21.7
			S34.3,61.7,46.3,61.7z"/>
		<g>
			<text transform="matrix(1 0 0 1 34.6108 91.0449)" class="st9 st19 st20 st21">hi!</text>
		</g>
	</g>
</g>
<g id="DESIGNED_BY_FREEPIK">
</g>
</svg>
