<?xml version="1.0" encoding="utf-8"?>
<!-- Generator: Adobe Illustrator 24.0.2, SVG Export Plug-In . SVG Version: 6.00 Build 0)  -->
<svg version="1.1" id="Capa_1" xmlns="http://www.w3.org/2000/svg" xmlns:xlink="http://www.w3.org/1999/xlink" x="0px" y="0px"
	 viewBox="0 0 190.5 191.2" style="enable-background:new 0 0 190.5 191.2;" xml:space="preserve">
<style type="text/css">
	.st0{fill:#DFE4DE;}
	.st1{fill:#373868;}
	.st2{fill:#B9BDC4;}
	.st3{fill:#383968;}
	.st4{fill:#383868;}
	.st5{fill:#3B3C6A;}
	.st6{fill:#DEE4DE;}
</style>
<g>
	<path class="st0" d="M187.9,96.7c-0.1,50.5-40.8,91-91.3,90.9c-50.1-0.2-90.9-41-90.8-91C5.9,46.3,47.1,5.3,97.3,5.6
		C147.5,5.9,188,46.6,187.9,96.7z"/>
	<path class="st1" d="M100.5,89.1c7.3-7.9,14.7-10.8,23.6-9c9,1.8,14.7,7.5,16.1,16.3c2.3,14.4,0.6,28.9,1,43.4
		c0,1.7-0.8,2.4-2.4,2.4c-0.5,0-1,0-1.5,0c-14.3,0.5-14.3,0.5-14.3-13.6c0-6.8,0.1-13.7,0-20.5c-0.2-7.6-3.2-11.3-9-11.5
		c-6.3-0.2-11.4,4.1-11.7,11.1c-0.5,9.5-0.5,19-0.2,28.4c0.1,4.7-0.9,6.8-6,6.1c-4.2-0.6-9.8,1.7-12.5-0.9c-3-2.9-0.9-8.5-1-12.9
		c-0.1-14.3,0-28.6-0.1-42.9c0-3.3,1-4.5,4.2-4.2c2.5,0.2,5,0.3,7.5,0C98.9,80.8,102.1,81.8,100.5,89.1z"/>
	<path class="st1" d="M52.5,111.5c0-8.8,0.1-17.6-0.1-26.4c0-2.7,0.6-3.9,3.6-3.8c4.1,0.2,8.3,0.2,12.5,0c2.7-0.1,3.4,0.9,3.4,3.4
		c-0.1,17.9-0.1,35.9,0,53.8c0,2.9-1.1,3.8-3.9,3.6c-4.9-0.4-11.2,2-14.5-0.9c-3.1-2.8-0.8-9.1-1-13.8
		C52.4,122.1,52.5,116.8,52.5,111.5z"/>
	<path class="st3" d="M62.1,72.6c-6.3,0-10.7-4.5-10.7-10.7c0-6,4.7-10.6,10.9-10.7C68.5,51.3,73,55.9,73,62
		C72.9,68.2,68.4,72.6,62.1,72.6z"/>
</g>
</svg>
