<?xml version="1.0" encoding="utf-8"?>
<!-- Generator: Adobe Illustrator 24.0.2, SVG Export Plug-In . SVG Version: 6.00 Build 0)  -->
<svg version="1.1" id="Capa_1" xmlns="http://www.w3.org/2000/svg" xmlns:xlink="http://www.w3.org/1999/xlink" x="0px" y="0px"
	 viewBox="0 0 190.5 191.2" style="enable-background:new 0 0 190.5 191.2;" xml:space="preserve">
<style type="text/css">
	.st0{fill:#DFE4DE;}
	.st1{fill:#373868;}
	.st2{fill:#B9BDC4;}
	.st3{fill:#383968;}
	.st4{fill:#383868;}
	.st5{fill:#3B3C6A;}
	.st6{fill:#DEE4DE;}
</style>
<g>
	<path class="st0" d="M187.9,96.5c0,50.5-40.6,91-91.1,91c-50,0-90.8-40.7-90.9-90.9C5.7,46.6,46.9,5.4,97.1,5.6
		C147.3,5.8,187.9,46.4,187.9,96.5z"/>
	<path class="st1" d="M103.2,125.4c0-2.2,0-4.3,0-6.5c0-8.4,0-8.5,8.1-9.2c2.1-0.2,3-0.9,3.2-2.9c0.1-1.3,0.5-2.6,0.7-3.9
		c1-6.3,1-6.2-5.5-6.4c-2.3-0.1-5.9,2-6.1-3.2c-0.3-7.6,1-10.9,5.5-11.7c0.8-0.2,1.7-0.3,2.5-0.1c4.9,1,5.1-1.7,5.4-5.6
		c0.3-4.9-1.3-6.5-6.2-6.9c-13.9-1.3-21.3,5-21.4,18.9c0,0.3,0,0.7,0,1c0,7.5,0,7.7-7.4,7.7c-3.1,0-4.2,1.1-3.9,4
		c0.1,0.8,0,1.7,0,2.5c0.1,7.8-0.5,6.8,6.7,6.6c3.8-0.1,4.9,1,4.7,4.7c-0.3,7.8-0.2,15.6,0,23.5c0.1,3.5-1,3.7-4,3
		c-21.1-5.2-35.9-26.1-33.9-48c2-22.2,20.4-40.2,42.3-41.3c24.2-1.3,44.1,14.9,48,38.8c3.6,22.4-11,44.5-33.3,50.8
		c-4.1,1.2-5.8,0.5-5.4-4.1C103.5,133.1,103.2,129.2,103.2,125.4z"/>
</g>
</svg>
