<?xml version="1.0" encoding="utf-8"?>
<!-- Generator: Adobe Illustrator 24.0.2, SVG Export Plug-In . SVG Version: 6.00 Build 0)  -->
<svg version="1.1" id="Capa_1" xmlns="http://www.w3.org/2000/svg" xmlns:xlink="http://www.w3.org/1999/xlink" x="0px" y="0px"
	 viewBox="0 0 164.1 162.1" style="enable-background:new 0 0 164.1 162.1;" xml:space="preserve">
<style type="text/css">
	.st0{fill:#DFE4DE;}
	.st1{fill:#3B3C6A;}
	.st2{fill:#3A3B69;}
	.st3{fill:#393A69;}
	.st4{fill:#41426F;}
	.st5{fill:#3A3B6A;}
	.st6{fill:#DEE4DE;}
	.st7{fill:#DEE3DE;}
</style>
<g>
	<path class="st0" d="M158.7,69.4C150.2,5.6,71.3-19.8,25.2,23.6c0,0,0,0,0,0c0,0,0,0,0,0c0,0,0,0,0,0c-34,33.9-30.7,94.2,9.7,121.5
		C89.1,186.4,170.1,136,158.7,69.4z"/>
	<path class="st1" d="M81.1,66.7c-4.5,0-9,0-13.5,0c-2.3,0-3.4-1-3.4-3.3c0-9.2,0-18.4,0-27.6c0-2.1,1-3.2,3.2-3.2
		c2.3,0,4.7,0.1,7,0c1.9-0.2,3.1,0.8,4.1,2.1c2,2.7,4.5,3.5,7.7,3.2c2.8-0.2,5.7,0,8.6-0.1c2.4,0,3.5,1,3.5,3.5
		c-0.1,7.2-0.1,14.5,0,21.7c0,2.7-1.2,3.6-3.7,3.6C90,66.6,85.5,66.7,81.1,66.7z"/>
	<path class="st2" d="M112.7,124.8c-4.4,0-8.8-0.1-13.2,0c-2.8,0.1-3.8-1.2-3.8-3.9c0-8.9,0.1-17.8,0-26.6c0-2.6,1-3.8,3.6-3.8
		c2.3,0,4.7,0.1,7,0c2.2-0.1,3.3,1.5,4.5,2.8c1.7,2,3.7,2.8,6.4,2.6c3-0.2,6.1,0,9.2-0.1c2.3-0.1,3.5,0.8,3.5,3.2
		c0,7.4,0,14.9,0,22.3c0,2.4-1.1,3.5-3.6,3.4C121.7,124.7,117.2,124.8,112.7,124.8z"/>
	<path class="st3" d="M49.4,124.8c-4.3,0-8.6-0.1-12.9,0c-2.7,0.1-4-1-4-3.7c0-9,0-18,0-26.9c0-2.6,1.2-3.7,3.8-3.6
		c1,0,2.1,0.1,3.1,0c3.8-0.5,7,0.5,9.3,3.8c1,1.4,2.4,1.7,4,1.7c3.6-0.1,7.1,0,10.7-0.1c2.4-0.1,3.3,1.1,3.3,3.3c0,7.3,0,14.7,0,22
		c0,2.5-1.3,3.6-3.8,3.6C58.4,124.7,53.9,124.8,49.4,124.8z"/>
	<path class="st4" d="M129.8,65.3c0,4.6,0,9.2,0,13.8c0,1,0.2,2.2-1.4,2.2c-1.7,0-1.3-1.3-1.3-2.2c0-8.4-0.1-16.7,0-25.1
		c0-2.3-0.5-3.1-2.9-2.9c-3.1,0.2-6.3,0.1-9.5,0c-0.9,0-2,0.3-2-1.1c-0.1-1.7,1.1-1.4,2.1-1.4c3.9,0,7.7,0,11.6,0
		c2.4,0,3.3,1.1,3.3,3.4C129.8,56.3,129.8,60.8,129.8,65.3z"/>
	<path class="st5" d="M32.6,65.4c0-4.4,0.1-8.8,0-13.2c-0.1-2.6,1.1-3.7,3.7-3.7c3.9,0.1,7.8,0,11.6,0c0.9,0,1.9-0.1,1.8,1.4
		c-0.1,1.2-0.9,1.1-1.8,1.1c-3.4,0-6.7,0.1-10.1,0c-2.1-0.1-2.8,0.5-2.8,2.7c0.1,8.3,0.1,16.6,0,24.8c0,1,0.8,2.8-1.4,2.6
		c-1.9-0.1-1.1-1.7-1.1-2.6C32.5,74.2,32.6,69.8,32.6,65.4z"/>
	<path class="st0" d="M81.3,64.2c-4.1,0-8.2-0.1-12.2,0c-1.7,0-2.3-0.4-2.3-2.2c0.1-8.3,0.1-16.5,0-24.8c0-1.3,0.2-2,1.8-2.1
		c4.2-0.2,8.2-0.3,10.8,3.8c0.8,1.3,2.2,1.6,3.8,1.5c3.6-0.1,7.1,0,10.7,0c1.4,0,2,0.4,2,1.9c-0.1,6.6-0.1,13.3,0,19.9
		c0,1.8-0.8,1.9-2.3,1.9C89.4,64.2,85.3,64.2,81.3,64.2z"/>
	<path class="st6" d="M112.9,122.2c-4.1,0-8.2,0-12.3,0c-1.6,0-2.4-0.2-2.4-2.1c0.1-8.4,0.1-16.8,0-25.1c0-1.5,0.5-1.9,1.9-2
		c4.2-0.2,8.2-0.2,10.8,3.9c0.9,1.4,2.2,1.5,3.8,1.5c3.6-0.1,7.2,0,10.7,0c1.4,0,2,0.4,2,1.9c-0.1,6.6-0.1,13.3,0,19.9
		c0,1.7-0.8,2-2.3,2C121,122.1,116.9,122.2,112.9,122.2z"/>
	<path class="st7" d="M49.4,122.2c-4.1,0-8.2-0.1-12.2,0c-1.6,0-2.1-0.4-2.1-2.1c0.1-8.4,0.1-16.7,0-25.1c0-1.6,0.6-2,2.1-2.1
		c4.3-0.3,8.1,0.1,10.7,4c0.8,1.2,2.1,1.4,3.5,1.4c3.5-0.1,6.9,0.1,10.4-0.1c1.8-0.1,2.6,0.3,2.5,2.3c-0.1,6.4-0.1,12.9,0,19.3
		c0,1.7-0.5,2.3-2.3,2.3C57.8,122.1,53.6,122.2,49.4,122.2z"/>
</g>
</svg>
