<?xml version="1.0" encoding="utf-8"?>
<!-- Generator: Adobe Illustrator 24.0.2, SVG Export Plug-In . SVG Version: 6.00 Build 0)  -->
<svg version="1.1" id="Capa_1" xmlns="http://www.w3.org/2000/svg" xmlns:xlink="http://www.w3.org/1999/xlink" x="0px" y="0px"
	 viewBox="0 0 104.8 104.7" style="enable-background:new 0 0 104.8 104.7;" xml:space="preserve">
<style type="text/css">
	.st0{fill:#373868;}
	.st1{fill:#393A69;}
	.st2{fill:#F3F3F6;}
</style>
<g>
	<path class="st0" d="M87,0.1c-11.5-0.1-23,0-34.5,0s-23,0-34.5,0C6.7,0.1,0.1,6.5,0.1,17.6C0,40.9,0,64.2,0.1,87.5
		c0,10.6,6.6,17.2,17.2,17.2c23.3,0.1,46.6,0.1,70,0c10.9-0.1,17.4-6.6,17.5-17.5c0.1-23.1,0.1-46.3,0-69.4
		C104.7,6.7,98.1,0.2,87,0.1z M79.7,62.5c-0.3,11.2-6.4,17.2-17.5,17.3c-6.7,0.1-13.3,0.1-20,0c-10.9-0.3-16.9-6.5-17-17.3
		c0-3.3,0-6.7,0-10h0.1c0-4-0.2-8,0-12c0.6-9.2,6.8-15,15.9-15.2c7.2-0.2,14.3-0.2,21.5,0c11,0.3,16.8,6.3,17,17.3
		C79.8,49.2,79.8,55.8,79.7,62.5z"/>
	<path class="st1" d="M65.7,30.6c-8.9-0.7-17.9-0.9-26.9,0.1c-5.4,0.7-8.4,3.9-8.6,9.4c-0.3,8.1-0.4,16.3,0.1,24.4
		c0.4,6.9,4.1,9.9,11.1,10.1c3.5,0.1,7,0,10.5,0c0-0.1,0-0.1,0-0.2c4.3,0,8.7,0.3,12.9-0.1c5.9-0.5,9-3.3,9.4-9.1
		c0.7-8.6,0.7-17.3-0.1-25.9C73.9,34.2,70.8,31,65.7,30.6z M51.9,66.6C44,66.4,38,59.8,38.2,51.8c0.3-7.6,6.7-13.7,14.4-13.6
		c8,0.2,14,6.5,13.9,14.5C66.3,60.8,59.9,66.8,51.9,66.6z M66.5,41.4c-2.2-0.2-3.2-1.6-3-3.7c0.2-1.8,1.4-3,3.4-2.9
		c2.2,0.1,3.1,1.5,3.4,3.2C69.8,40.3,68.7,41.6,66.5,41.4z"/>
	<path class="st2" d="M52,61.5c-4.7-0.2-8.7-4.3-8.7-9.1s4-8.8,8.8-8.9c5.2-0.1,9.2,3.9,9.2,9C61.3,57.5,57,61.6,52,61.5z"/>
	<path class="st1" d="M52.2,43.5c-4.9,0.1-8.8,4-8.8,8.9c0,4.8,3.9,8.9,8.7,9.1c5,0.2,9.3-3.9,9.3-9S57.4,43.4,52.2,43.5z"/>
</g>
</svg>
