<?xml version="1.0" encoding="utf-8"?>
<!-- Generator: Adobe Illustrator 24.0.2, SVG Export Plug-In . SVG Version: 6.00 Build 0)  -->
<svg version="1.1" id="Capa_1" xmlns="http://www.w3.org/2000/svg" xmlns:xlink="http://www.w3.org/1999/xlink" x="0px" y="0px"
	 viewBox="0 0 104.8 104.9" style="enable-background:new 0 0 104.8 104.9;" xml:space="preserve">
<style type="text/css">
	.st0{fill:#373868;}
	.st1{fill:#393A69;}
	.st2{fill:#F3F3F6;}
</style>
<g>
	<path class="st0" d="M104.7,16.9C104.5,7,97.8,0.2,88,0.2c-23.7-0.1-47.3-0.1-71,0c-10.2,0-16.9,6.7-16.9,17
		C0,40.7,0,64.1,0.1,87.6c0,10.5,6.5,17.2,17.2,17.3c23.3,0.1,46.6,0.1,70,0c11.1-0.1,17.5-6.8,17.5-18c0.1-11.5,0-23,0-34.5l0,0
		C104.8,40.5,104.9,28.7,104.7,16.9z M33.1,78.7c-2.5-0.3-6.4,1.8-6.3-3.5c0.1-9.3,0.1-18.6-0.1-27.8c-0.1-5.2,3.7-3.5,6.3-3.7
		c2.7-0.2,5.4-0.5,5.2,3.8c-0.3,4.6-0.1,9.3-0.1,13.9c0,4.5-0.2,9,0.1,13.4C38.4,78.9,35.9,79.1,33.1,78.7z M32.3,38.7
		c-4-0.1-6.2-2.5-6.1-6.4s2.5-6.2,6.4-6.1c3.9,0.1,5.9,2.5,6.2,6.2C38.3,36.4,36.3,38.8,32.3,38.7z M72.4,78.9
		c-3.8,0.1-5.4-0.9-5.1-5c0.4-4.8,0.1-9.6,0.1-14.5c0-3.5-0.9-6.5-5-6.7c-4.3-0.2-6.5,2.4-6.8,6.4c-0.3,5-0.5,10-0.1,14.9
		c0.4,5-2.4,4.7-5.8,4.8c-3.8,0.1-5.8-0.4-5.6-5c0.4-8.3,0-16.6,0.1-24.9c0-1.8-1.1-4.6,1.7-5c2.8-0.4,6.6-1.7,8.4,0.9
		c1.8,2.5,2.4,0.9,3.6,0.1c8.6-5.4,18.9-0.5,19.9,9.6c0.4,3.6,0.1,7.3,0.1,11H78c0,2.8-0.3,5.7,0.1,8.5C78.7,78.6,76,78.8,72.4,78.9
		z"/>
</g>
</svg>
